<svg xmlns="http://www.w3.org/2000/svg" width="128" height="128" fill-rule="evenodd" clip-rule="evenodd" image-rendering="optimizeQuality" shape-rendering="geometricPrecision" text-rendering="geometricPrecision" viewBox="0 0 16583 16583"><defs><clipPath id="a"><path d="M8292 0c4579,0 8291,3712 8291,8292 0,4579 -3712,8291 -8291,8291 -4580,0 -8292,-3712 -8292,-8291 0,-4580 3712,-8292 8292,-8292z"/></clipPath></defs><path fill="#72cf7b" d="M8292 0c4579,0 8291,3712 8291,8292 0,4579 -3712,8291 -8291,8291 -4580,0 -8292,-3712 -8292,-8291 0,-4580 3712,-8292 8292,-8292z"/><g clip-path="url(#a)"><path fill="#833d29" d="M2682 3392l9528 0c342,0 623,281 623,623l0 13247c0,343 -281,623 -623,623l-9528 0c-343,0 -624,-280 -624,-623l0 -13247c0,-342 281,-623 624,-623z"/><polygon fill="#e1e3e8" points="2773 4128 12119 4128 12119 17149 2773 17149"/><path fill="#c5c7cb" d="M6280 2658l460 0c-12,-53 -19,63 -19,-166 0,-907 1449,-907 1449,0 0,229 -6,113 -19,166l461 0c347,0 631,284 631,632l0 1150 -3595 0 0 -1150c0,-348 284,-632 632,-632z"/><path fill="#e1e3e8" d="M6740 2658c-12,-53 -19,63 -19,-166 0,-628 696,-821 1123,-579 6,36 8,73 8,111 0,407 -330,737 -736,737 -138,0 -266,-38 -376,-103z"/><path fill="#8e8e93" d="M5597 4253l3697 0c67,0 122,55 122,121l0 0c0,67 -55,122 -122,122l-3697 0c-67,0 -121,-55 -121,-122l0 0c0,-66 54,-121 121,-121z"/><path fill="#e1e3e8" d="M6026 2917l2840 0c69,0 126,57 126,127l0 348 -163 0 0 -186c0,-70 -57,-127 -127,-127l-2513 0c-70,0 -127,57 -127,127l0 186 -163 0 0 -348c0,-70 57,-127 127,-127z"/><rect width="3255" height="180" x="4160" y="14082" fill="#ff576b"/><rect width="6866" height="180" x="4160" y="14519" fill="#afb0b5"/><rect width="4585" height="180" x="4160" y="14955" fill="#afb0b5"/></g><path fill="none" d="M8292 0c4579,0 8291,3712 8291,8292 0,4579 -3712,8291 -8291,8291 -4580,0 -8292,-3712 -8292,-8291 0,-4580 3712,-8292 8292,-8292z"/><polygon fill="#e1e3e8" points="14009 11515 13841 10777 14009 10777 14177 10777"/><path fill="#4d4d4d" d="M13690 811l638 0c156,0 284,128 284,284l0 3529c0,0 -75,4223 -372,6093 -5,35 -35,60 -70,60l-322 0c-36,0 -65,-25 -70,-60 -297,-1870 -372,-6093 -372,-6093l0 -3529c0,-156 127,-284 284,-284z"/><rect width="1206" height="330" x="13406" y="4294" fill="#c5c7cb"/><path fill="#c5c7cb" d="M13690 811l638 0 0-487c0-84-68-153-152-153l-334 0c-84 0-152 69-152 153l0 487zM13406 1381l1206 0 339 285c100 84 152 196 152 326l0 2767-224-114 0-279 82-161 0-2052c0-143-64-267-182-349l-167-117-1206 0 0-306z"/><path fill="#afb0b5" d="M5409 6057l5771 0 0 187 -5771 0 0 -187zm0 490l4782 0 0 187 -4782 0 0 -187z"/><circle cx="4261" cy="6395" r="574" fill="#ff576b"/><circle cx="4261" cy="8268" r="574" fill="#ffc42e"/><circle cx="4261" cy="10029" r="574" fill="#53b4ed"/><circle cx="4261" cy="12012" r="574" fill="#00dcab"/><polygon fill="#fff" fill-rule="nonzero" points="3946 11897 4127 12101 4585 11648 4719 11784 4190 12307 4119 12377 4052 12302 3804 12024"/><polyline fill="none" points="3883 6368 4132 6647 4661 6123"/><polygon fill="#fff" fill-rule="nonzero" points="3996 6299 4148 6470 4534 6088 4646 6203 4201 6643 4141 6703 4085 6640 3876 6406"/><line x1="4039" x2="4538" y1="8504" y2="8011" fill="none"/><polygon fill="#fff" fill-rule="nonzero" points="3898 8493 4126 8268 3898 8043 4032 7907 4261 8134 4491 7907 4625 8043 4397 8268 4625 8493 4491 8629 4261 8402 4032 8629"/><line x1="4538" x2="4039" y1="8504" y2="8011" fill="none"/><polygon fill="#fff" fill-rule="nonzero" points="3946 9914 4127 10118 4585 9665 4719 9801 4190 10324 4119 10394 4052 10319 3804 10041"/><path fill="#afb0b5" d="M5409 7929l5771 0 0 188-5771 0 0-188zm0 490l4782 0 0 188-4782 0 0-188zM5409 9691l5771 0 0 187-5771 0 0-187zm0 490l4782 0 0 187-4782 0 0-187zM5409 11674l5771 0 0 187-5771 0 0-187zm0 490l4782 0 0 187-4782 0 0-187z"/></svg>